Coordinates
version=1
nRows=14
nColumns=40
inDegrees=yes

Units are S.I. units (second, meters, Newtons, ...)
If the header above contains a line with 'inDegrees', this indicates whether rotational values are in degrees (yes) or radians (no).

endheader
time	pelvis_tilt	pelvis_list	pelvis_rotation	pelvis_tx	pelvis_ty	pelvis_tz	hip_flexion_r	hip_adduction_r	hip_rotation_r	knee_angle_r	knee_angle_r_beta	ankle_angle_r	subtalar_angle_r	mtp_angle_r	hip_flexion_l	hip_adduction_l	hip_rotation_l	knee_angle_l	knee_angle_l_beta	ankle_angle_l	subtalar_angle_l	mtp_angle_l	lumbar_extension	lumbar_bending	lumbar_rotation	arm_flex_r	arm_add_r	arm_rot_r	elbow_flex_r	pro_sup_r	wrist_flex_r	wrist_dev_r	arm_flex_l	arm_add_l	arm_rot_l	elbow_flex_l	pro_sup_l	wrist_flex_l	wrist_dev_l
      3.94500000	      1.78477711	     -2.37651748	    -13.72611967	     -0.23274005	      1.53581780	     -0.83540190	     -6.33440205	     -2.29118823	      1.25040015	      5.23117349	      0.09130120	    -38.33424506	      0.00000000	      0.00000000	    -13.87061115	    -11.32171184	    -19.17993985	      5.11161279	      0.08921447	    -34.74793306	      0.00000000	      0.00000000	     -9.80102562	      1.64957903	     -2.32802242	    -52.64280715	    -43.21233746	      3.90880630	    120.13333080	     87.77347457	      0.00000000	      0.00000000	    -29.55550078	    -62.15328145	     42.49425584	    108.74412848	     88.14055630	      0.00000000	      0.00000000
      3.95000000	      1.57096714	     -2.39349889	    -13.84893580	     -0.23360163	      1.53496099	     -0.83551529	     -5.92776858	     -2.22502640	      2.21498249	      5.43877831	      0.09492459	    -38.24690125	      0.00000000	      0.00000000	    -13.58601221	    -11.48439837	    -19.04134988	      5.34298587	      0.09325270	    -34.65198069	      0.00000000	      0.00000000	     -9.71752814	      1.75206092	     -2.39390097	    -52.70960079	    -43.03850232	      3.83580741	    120.17542294	     87.74763962	      0.00000000	      0.00000000	    -29.61968455	    -62.02551285	     42.40437057	    108.60927895	     88.16360979	      0.00000000	      0.00000000
      3.95500000	      1.32715554	     -2.44423525	    -13.94601048	     -0.23458200	      1.53378634	     -0.83569213	     -5.49289116	     -2.11919959	      3.14075024	      5.63323709	      0.09831853	    -38.18376842	      0.00000000	      0.00000000	    -13.23355934	    -11.72532456	    -18.91313255	      5.61565937	      0.09801175	    -34.59862188	      0.00000000	      0.00000000	     -9.62999946	      1.89148333	     -2.58815655	    -52.67716869	    -42.92418984	      3.77983310	    120.20548992	     87.80663882	      0.00000000	      0.00000000	    -29.95761506	    -61.81457078	     42.04063418	    108.46716929	     88.14100680	      0.00000000	      0.00000000
      3.96000000	      1.16704329	     -2.47052199	    -14.02733290	     -0.23511236	      1.53227078	     -0.83580803	     -5.15356113	     -2.06479514	      3.88795953	      5.86755221	      0.10240811	    -38.11019213	      0.00000000	      0.00000000	    -13.04239751	    -11.88362341	    -18.74384831	      5.75192639	      0.10039005	    -34.54212026	      0.00000000	      0.00000000	     -9.55469754	      2.01340038	     -2.16197978	    -53.48207834	    -42.06840755	      2.99115811	    120.34626743	     87.81201710	      0.00000000	      0.00000000	    -28.25655005	    -62.19421422	     43.89848146	    108.35833195	     88.11723748	      0.00000000	      0.00000000
      3.96500000	      0.98001131	     -2.53440224	    -14.07655387	     -0.23601605	      1.53062043	     -0.83603626	     -4.77532185	     -1.95871464	      4.66065084	      6.07163554	      0.10597003	    -38.13179372	      0.00000000	      0.00000000	    -12.77265569	    -12.11246111	    -18.44209349	      5.94072209	      0.10368516	    -34.63529799	      0.00000000	      0.00000000	     -9.53295962	      2.16616906	     -2.28095530	    -53.55180678	    -41.84009299	      2.86107735	    120.41992743	     87.80233937	      0.00000000	      0.00000000	    -28.25969534	    -62.06122547	     43.85046396	    108.19332381	     88.10578282	      0.00000000	      0.00000000
      3.97000000	      0.71566863	     -2.61153869	    -14.10887988	     -0.23713133	      1.52875360	     -0.83628373	     -4.32200606	     -1.81234816	      5.51180710	      6.26979231	      0.10942852	    -38.01550686	      0.00000000	      0.00000000	    -12.40943685	    -12.38720170	    -18.10545868	      6.10032699	      0.10647079	    -34.55516695	      0.00000000	      0.00000000	     -9.46994174	      2.35979699	     -2.40921410	    -53.64524894	    -41.61019107	      2.70144024	    120.46198182	     87.80380935	      0.00000000	      0.00000000	    -28.24029968	    -61.95668273	     43.82504568	    108.04925524	     88.10502042	      0.00000000	      0.00000000
      3.97500000	      0.58102578	     -2.65607635	    -14.19611889	     -0.23792480	      1.52655327	     -0.83644456	     -3.99131033	     -1.74453012	      6.20448150	      6.47956173	      0.11308969	    -38.01182899	      0.00000000	      0.00000000	    -12.21682003	    -12.56773027	    -17.94517535	      6.25744835	      0.10921308	    -34.55407253	      0.00000000	      0.00000000	     -9.49300386	      2.48359097	     -2.47740468	    -53.73995353	    -41.34301911	      2.53315375	    120.54424856	     87.80325041	      0.00000000	      0.00000000	    -28.26046291	    -61.88410074	     43.80718918	    107.94390730	     88.10675617	      0.00000000	      0.00000000
      3.98000000	      0.35383283	     -2.69096885	    -14.31137892	     -0.23909803	      1.52414663	     -0.83665412	     -3.54263679	     -1.67582425	      7.00326057	      6.67001519	      0.11641373	    -37.88475681	      0.00000000	      0.00000000	    -11.92137147	    -12.76761779	    -17.70205256	      6.38907410	      0.11151038	    -34.49175683	      0.00000000	      0.00000000	     -9.46259608	      2.60290686	     -2.53137084	    -53.82864804	    -41.09735303	      2.35691697	    120.59474872	     87.81181309	      0.00000000	      0.00000000	    -28.24947970	    -61.79112391	     43.76450169	    107.78898892	     88.11153820	      0.00000000	      0.00000000
      3.98500000	      0.15986635	     -2.73198694	    -14.35895743	     -0.24011304	      1.52146003	     -0.83690368	     -3.16614930	     -1.60171538	      7.69439257	      6.80876256	      0.11883532	    -37.77704689	      0.00000000	      0.00000000	    -11.62324596	    -12.98864834	    -17.49301114	      6.56930191	      0.11465595	    -34.33627972	      0.00000000	      0.00000000	     -9.46163565	      2.73953103	     -2.63421526	    -53.93597343	    -40.84746385	      2.18578328	    120.61274675	     87.80956740	      0.00000000	      0.00000000	    -28.21466246	    -61.72412033	     43.78457895	    107.68806717	     88.11345975	      0.00000000	      0.00000000
      3.99000000	     -0.00166322	     -2.76317874	    -14.45954901	     -0.24109623	      1.51854177	     -0.83711435	     -2.80588664	     -1.56097716	      8.26936980	      6.95332639	      0.12135844	    -37.66626623	      0.00000000	      0.00000000	    -11.35875433	    -13.18134812	    -17.41892251	      6.77790166	      0.11829670	    -34.18058424	      0.00000000	      0.00000000	     -9.50499271	      2.85530039	     -2.66428796	    -54.01046169	    -40.58393666	      2.00158943	    120.68007777	     87.81749869	      0.00000000	      0.00000000	    -28.16772961	    -61.66844030	     43.84146362	    107.56988710	     88.11543664	      0.00000000	      0.00000000
      3.99500000	     -0.01479904	     -2.75652974	    -14.53343230	     -0.24207288	      1.51560425	     -0.83739629	     -2.64372097	     -1.62966832	      8.33089329	      6.97989906	      0.12182222	    -37.55368339	      0.00000000	      0.00000000	    -11.30986047	    -13.27578193	    -17.40671469	      6.79714855	      0.11863262	    -34.11653781	      0.00000000	      0.00000000	     -9.68816127	      2.86981112	     -2.78283433	    -54.00967821	    -40.51337928	      1.99581757	    120.69773411	     87.69348124	      0.00000000	      0.00000000	    -28.15867690	    -61.66836910	     43.85195268	    107.54912904	     87.98148777	      0.00000000	      0.00000000
      4.00000000	     -0.26031655	     -2.81129819	    -14.55685084	     -0.24313813	      1.51211302	     -0.83771284	     -2.17544719	     -1.54515765	      9.10033811	      7.16896102	      0.12512197	    -37.38665339	      0.00000000	      0.00000000	    -10.90838320	    -13.55989959	    -17.25959532	      7.05414083	      0.12311798	    -33.84683528	      0.00000000	      0.00000000	     -9.66626943	      3.06441822	     -2.86666144	    -54.20998012	    -40.08717999	      1.66561561	    120.80060391	     87.79435397	      0.00000000	      0.00000000	    -28.10253991	    -61.54054972	     43.87457447	    107.34929604	     88.10560400	      0.00000000	      0.00000000
      4.00500000	     -0.27632618	     -2.80525393	    -14.63703429	     -0.24410038	      1.50863092	     -0.83804930	     -1.98625122	     -1.62599810	      9.14804187	      7.18172914	      0.12534482	    -37.25818759	      0.00000000	      0.00000000	    -10.86311603	    -13.64968022	    -17.25339458	      7.08364089	      0.12363286	    -33.77389563	      0.00000000	      0.00000000	     -9.85763301	      3.09086734	     -2.97879291	    -54.22720967	    -40.01398576	      1.65635867	    120.78873841	     87.67416221	      0.00000000	      0.00000000	    -28.10974863	    -61.52001100	     43.90380874	    107.32756624	     87.97587865	      0.00000000	      0.00000000
      4.01000000	     -0.52539435	     -2.91159767	    -14.75658510	     -0.24528210	      1.50468314	     -0.83818440	     -1.51280091	     -1.50561266	      9.72935987	      7.38428586	      0.12888010	    -36.97373758	      0.00000000	      0.00000000	    -10.48577137	    -13.98878397	    -17.30551283	      7.38943785	      0.12897002	    -33.59272551	      0.00000000	      0.00000000	     -9.86671987	      3.31706549	     -2.97426015	    -54.36068199	    -39.65785538	      1.33104091	    120.84545256	     87.75696087	      0.00000000	      0.00000000	    -28.03824674	    -61.38082622	     43.91000179	    107.10332883	     88.09006354	      0.00000000	      0.00000000
